<?xml version="1.0" encoding="UTF-8"?>
<svg width="18px" height="18px" viewBox="0 0 18 18" version="1.1" xmlns="http://www.w3.org/2000/svg" xmlns:xlink="http://www.w3.org/1999/xlink">
    <defs/>
    <g id="Symbols" stroke="none" stroke-width="1" fill="none" fill-rule="evenodd">
        <g id="LS-Profile-Links" transform="translate(-57.000000, -40.000000)" fill="#FFFFFF">
            <g id="Group-6">
                <path d="M74.94586,45.28931 C74.9309065,44.5426888 74.7894582,43.8040085 74.52753,43.10468 C74.3015394,42.5041404 73.9472753,41.9601225 73.48944,41.51056 C73.0398775,41.0527247 72.4958596,40.6984606 71.89532,40.47247 C71.1959915,40.2105418 70.4573112,40.0690935 69.71069,40.05414 C68.75073,40.01038 68.44427,40 66,40 C63.55573,40 63.24927,40.01038 62.28931,40.05414 C61.5426888,40.0690935 60.8040085,40.2105418 60.10468,40.47247 C59.5041404,40.6984606 58.9601225,41.0527247 58.51056,41.51056 C58.0527247,41.9601225 57.6984606,42.5041404 57.47247,43.10468 C57.2105418,43.8040085 57.0690935,44.5426888 57.05414,45.28931 C57.01038,46.24927 57,46.55573 57,49 C57,51.44427 57.01038,51.75073 57.05414,52.71069 C57.0690935,53.4573112 57.2105418,54.1959915 57.47247,54.89532 C57.6984606,55.4958596 58.0527247,56.0398775 58.51056,56.48944 C58.9601061,56.9472953 59.5041287,57.3015625 60.10468,57.52753 C60.8040085,57.7894582 61.5426888,57.9309065 62.28931,57.94586 C63.24927,57.98969 63.55573,58 66,58 C68.44427,58 68.75073,57.98969 69.71069,57.94586 C70.4573112,57.9309065 71.1959915,57.7894582 71.89532,57.52753 C73.1042544,57.0599688 74.0599588,56.1042644 74.52752,54.89533 C74.7894482,54.1960015 74.9308965,53.4573212 74.94585,52.7107 C74.98962,51.75073 75,51.44427 75,49 C75,46.55573 74.98962,46.24927 74.94586,45.28931 Z M73.32593,52.63678 C73.3191752,53.2074749 73.2143342,53.7727584 73.01599,54.30792 C72.7132468,55.0928479 72.0928462,55.7132522 71.30792,56.016 C70.7727565,56.2143373 70.2074742,56.319178 69.63678,56.32594 C68.68787,56.3692 68.40326,56.37836 66,56.37836 C63.59674,56.37836 63.31213,56.3692 62.36322,56.32593 C61.7925264,56.3191712 61.2272441,56.2143339 60.69208,56.016 C60.3011503,55.8717562 59.9475296,55.6417088 59.65723,55.34278 C59.3582963,55.0524785 59.1282454,54.6988542 58.984,54.30792 C58.7856558,53.7727584 58.6808148,53.2074749 58.67406,52.63678 C58.6308,51.68774 58.62164,51.40314 58.62164,49 C58.62164,46.59686 58.6308,46.31226 58.67407,45.36322 C58.6808288,44.7925264 58.7856661,44.2272441 58.984,43.69208 C59.1282438,43.3011503 59.3582912,42.9475296 59.65722,42.65723 C59.9475215,42.3582963 60.3011458,42.1282454 60.69208,41.984 C61.2272435,41.7856627 61.7925258,41.680822 62.36322,41.67406 C63.31226,41.6308 63.59686,41.62164 66,41.62164 C68.40314,41.62164 68.68774,41.6308 69.63678,41.67407 C70.2074742,41.680832 70.7727565,41.7856727 71.30792,41.98401 C71.6988497,42.1282538 72.0524704,42.3583012 72.34277,42.65723 C72.6417025,42.9475286 72.8717533,43.3011493 73.016,43.69208 C73.2143373,44.2272435 73.319178,44.7925258 73.32594,45.36322 C73.36921,46.31222 73.37837,46.59692 73.37837,49 C73.37837,51.40308 73.3692,51.68774 73.32593,52.63678 L73.32593,52.63678 Z M66,44.37836 C63.4475387,44.37836 61.37836,46.4475387 61.37836,49 C61.37836,51.5524613 63.4475387,53.62164 66,53.62164 C68.5524613,53.62164 70.62164,51.5524613 70.62164,49 C70.6216124,46.4475501 68.5524499,44.3783876 66,44.37836 L66,44.37836 Z M66,52 C64.3431458,52 63,50.6568542 63,49 C63,47.3431458 64.3431458,46 66,46 C67.6568542,46 69,47.3431458 69,49 C69,49.7956495 68.6839295,50.5587112 68.1213203,51.1213203 C67.5587112,51.6839295 66.7956495,52 66,52 Z M71.88422,44.1958 C71.88422,44.7922675 71.4006875,45.2758 70.80422,45.2758 C70.2077525,45.2758 69.72422,44.7922675 69.72422,44.1958 C69.72422,43.5993325 70.2077525,43.1158 70.80422,43.1158 C71.4006875,43.1158 71.88422,43.5993325 71.88422,44.1958 L71.88422,44.1958 Z" id="icon-instagram"/>
            </g>
        </g>
    </g>
</svg>