<svg xmlns="http://www.w3.org/2000/svg" viewBox="0 0 512 512" width="18px" height="18px">
  <title>Apple Podcasts</title>
  <circle cx="256" cy="256" r="256" fill="#a479e2"/>
  <g fill="#f2f2f2">
    <path d="M298.719 508.446a256.845 256.845 0 01-42.715 3.553 258.783 258.783 0 01-39.267-2.988c-8.61-37.073-25.14-134.74-17.032-164.174 7.262-26.331 48.88-29.957 57.96-29.957 9.08 0 50.698 3.626 57.961 29.957 8.087 29.288-8.256 126.129-16.907 163.609z"/>
    <circle cx="256" cy="238.38" r="55.39"/>
    <path d="M256.003 104.572c-84.553 0-153.339 68.786-153.339 153.339 0 53.655 27.711 100.968 69.58 128.376-.846-14.838-.773-28.4.69-39.111-23.949-22.277-38.943-54.053-38.943-89.266 0-67.281 54.732-122.013 122.013-122.013 67.271 0 122.013 54.732 122.013 122.013 0 33.761-13.803 64.366-36.039 86.476 1.787 10.553 2.017 24.325 1.243 39.549 39.926-27.679 66.121-73.853 66.121-126.025 0-84.552-68.796-153.338-153.339-153.338z"/>
    <path d="M256.003 25.787c-128 0-232.124 104.124-232.124 232.124 0 102.985 67.427 190.527 160.455 220.808-1.975-10.836-4.033-22.977-5.893-35.589-72.318-30.396-123.246-101.982-123.246-185.219 0-110.728 90.081-200.798 200.808-200.798 110.717 0 200.798 90.07 200.798 200.798 0 81.857-49.246 152.451-119.672 183.683-1.849 12.706-3.918 24.973-5.914 35.934 91.199-31.326 156.912-117.938 156.912-219.617 0-128-104.134-232.124-232.124-232.124z"/>
  </g>
</svg>
