<svg xmlns="http://www.w3.org/2000/svg" viewBox="0 0 291.319 291.319" width="18px" height="18px">
  <title>RSS</title>
  <path d="M145.659 0c80.44 0 145.66 65.219 145.66 145.66 0 80.45-65.219 145.659-145.66 145.659S0 226.109 0 145.66C0 65.219 65.21 0 145.659 0z" fill="#ee802f"/>
  <path d="M109.254 163.831c-10.06 0-18.226 8.157-18.226 18.226s8.157 18.226 18.226 18.226 18.226-8.157 18.226-18.226-8.158-18.226-18.226-18.226zm-5.381-45.464c-7.074 0-12.8 5.726-12.8 12.8 0 7.064 5.726 12.8 12.8 12.8 23.997 0 43.525 19.527 43.525 43.525 0 7.064 5.726 12.8 12.809 12.8 7.055 0 12.8-5.735 12.8-12.8 0-38.118-31.016-69.125-69.134-69.125zm.246-45.528c-7.228 0-13.091 5.863-13.091 13.091s5.863 13.091 13.091 13.091c48.623 0 88.188 39.556 88.188 88.179 0 7.228 5.854 13.091 13.091 13.091s13.091-5.872 13.091-13.091c-.009-63.062-51.317-114.361-114.37-114.361z" fill="#fff"/>
</svg>
