<svg xmlns="http://www.w3.org/2000/svg" viewBox="0 0 512 512" width="18px" height="18px">
  <title>Spotify</title>
  <path d="M255.901 0C114.797 0 0 114.807 0 255.921 0 397.124 114.797 512 255.901 512 397.114 512 512 397.124 512 255.921 512 114.807 397.114 0 255.901 0zm112.657 401.588c-2.197 4.093-6.656 6.738-11.361 6.738-2.332 0-4.381-.524-6.431-1.633-41.041-22.558-87.487-34.482-134.32-34.482-28.294 0-56.072 4.187-82.536 12.437a13.576 13.576 0 01-3.942.593c-5.795 0-10.824-3.69-12.511-9.169-2.278-7.487 2.432-24.104 8.578-26.115 29.669-9.031 60.089-13.611 90.409-13.611 51.495 0 102.333 13.05 147.04 37.754 2.659 1.449 5.076 6.24 6.161 12.204 1.085 5.962.654 12.092-1.087 15.284zm31.927-94.709c-4.843 9.478-10.504 15.845-14.089 15.845-2.542 0-4.994-.609-7.437-1.83-50.393-26.243-105.069-39.548-162.516-39.548-31.954 0-63.303 4.202-93.149 12.481a16.198 16.198 0 01-4.232.566c-7.18.002-13.507-4.846-15.38-11.773-2.401-9.004 3.08-24.747 11.187-26.953a387.318 387.318 0 01101.574-13.547c61.717 0 123.003 14.934 177.271 43.206 3.804 1.93 6.607 5.206 7.892 9.216 1.306 4.066.912 8.434-1.121 12.337zm34.099-91.099c-3.065 6.136-9.689 12.741-16.99 12.741-2.815 0-5.706-.66-8.266-1.862-60.129-30.084-125.024-45.338-192.881-45.338-34.871 0-70.006 4.289-104.431 12.745a19.248 19.248 0 01-4.606.564c-8.677 0-16.196-5.862-18.284-14.245-2.617-10.614 4.024-22.944 13.641-25.367 37.403-9.187 75.65-13.846 113.681-13.846 73.621 0 144.127 16.552 209.586 49.207 4.546 2.243 7.935 6.114 9.547 10.898 1.608 4.79 1.252 9.947-.997 14.503z" fill="#9bd44e"/>
</svg>
